<svg width="135" height="40" viewBox="0 0 135 40" fill="none" xmlns="http://www.w3.org/2000/svg">
<g clip-path="url(#clip0_11032_117602)">
<path d="M130 0.000244141H5C2.23858 0.000244141 0 2.23882 0 5.00024V35.0002C0 37.7617 2.23858 40.0002 5 40.0002H130C132.761 40.0002 135 37.7617 135 35.0002V5.00024C135 2.23882 132.761 0.000244141 130 0.000244141Z" fill="black"/>
<path d="M130 0.800288C131.114 0.801575 132.181 1.24452 132.968 2.03194C133.756 2.81936 134.199 3.88695 134.2 5.00049V35.0005C134.199 36.114 133.756 37.1816 132.968 37.969C132.181 38.7564 131.114 39.1994 130 39.2007H5C3.88645 39.1994 2.81888 38.7565 2.0315 37.9691C1.24412 37.1816 0.801231 36.114 0.8 35.0005V5.00049C0.801212 3.88693 1.24409 2.81933 2.03148 2.03191C2.81886 1.24449 3.88644 0.801554 5 0.800288H130ZM130 0.000488281H5C3.67511 0.00436638 2.40559 0.532396 1.46875 1.46924C0.531908 2.40608 0.0038781 3.6756 0 5.00049L0 35.0005C0.0038781 36.3254 0.531908 37.5949 1.46875 38.5317C2.40559 39.4686 3.67511 39.9966 5 40.0005H130C131.325 39.9966 132.594 39.4686 133.531 38.5317C134.468 37.5949 134.996 36.3254 135 35.0005V5.00049C134.996 3.6756 134.468 2.40608 133.531 1.46924C132.594 0.532396 131.325 0.00436638 130 0.000488281Z" fill="#A6A6A6"/>
<path d="M47.4183 10.2436C47.4365 10.6105 47.3798 10.9773 47.2516 11.3217C47.1235 11.666 46.9267 11.9807 46.6731 12.2465C46.3889 12.5412 46.0456 12.7727 45.6658 12.9257C45.286 13.0786 44.8782 13.1497 44.469 13.1342C44.0572 13.1379 43.6488 13.0592 43.2679 12.9028C42.8869 12.7464 42.5411 12.5155 42.2507 12.2235C41.9603 11.9315 41.7312 11.5845 41.5768 11.2027C41.4225 10.8209 41.346 10.4121 41.3519 10.0004C41.346 9.58862 41.4225 9.17984 41.5769 8.79805C41.7313 8.41627 41.9604 8.06919 42.2508 7.7772C42.5412 7.48521 42.887 7.25419 43.2679 7.09773C43.6488 6.94127 44.0572 6.86251 44.469 6.86608C44.8924 6.8648 45.3115 6.9504 45.7005 7.11758C46.0617 7.26402 46.3833 7.49373 46.639 7.78798L46.1116 8.31578C45.9106 8.07923 45.658 7.89202 45.3732 7.76859C45.0884 7.64516 44.779 7.5888 44.469 7.60388C44.1569 7.60227 43.8477 7.66366 43.5599 7.78437C43.2721 7.90508 43.0116 8.08263 42.7941 8.30639C42.5765 8.53015 42.4064 8.79552 42.2938 9.08659C42.1812 9.37767 42.1286 9.68847 42.139 10.0004C42.1315 10.4676 42.263 10.9265 42.5167 11.3188C42.7704 11.7112 43.1349 12.0194 43.564 12.2044C43.9931 12.3893 44.4674 12.4427 44.9269 12.3577C45.3864 12.2727 45.8102 12.0532 46.1448 11.727C46.4527 11.3952 46.6311 10.9639 46.6477 10.5116H44.469V9.79088H47.3763C47.4038 9.94023 47.4178 10.0917 47.4183 10.2436Z" fill="white"/>
<path d="M52.0276 7.73768H49.2952V9.63998H51.7591V10.3608H49.2952V12.2631H52.0276V13.0004H48.5247V7.00038H52.0276V7.73768Z" fill="white"/>
<path d="M55.2786 13.0004H54.5071V7.73768H52.8313V7.00038H56.9544V7.73768H55.2786V13.0004Z" fill="white"/>
<path d="M59.9378 13.0004V7.00038H60.7083V13.0004H59.9378Z" fill="white"/>
<path d="M64.1282 13.0004H63.3567V7.73768H61.681V7.00038H65.804V7.73768H64.1282V13.0004Z" fill="white"/>
<path d="M73.6092 12.225C73.0252 12.8072 72.2341 13.1342 71.4095 13.1342C70.5848 13.1342 69.7938 12.8072 69.2098 12.225C68.9209 11.9324 68.6937 11.5846 68.5419 11.2025C68.3901 10.8203 68.3167 10.4115 68.326 10.0004C68.3167 9.58927 68.3901 9.18048 68.5419 8.79831C68.6937 8.41614 68.9209 8.06841 69.2098 7.77578C69.4984 7.48705 69.8412 7.25808 70.2185 7.10198C70.5957 6.94588 71.0001 6.86572 71.4083 6.86608C71.8166 6.86645 72.2208 6.94733 72.5978 7.10409C72.9748 7.26086 73.3171 7.49044 73.6053 7.77968C73.8944 8.07154 74.122 8.4185 74.2744 8.79997C74.4269 9.18144 74.5013 9.58965 74.493 10.0004C74.5021 10.4115 74.4285 10.8202 74.2767 11.2023C74.1249 11.5844 73.8979 11.9322 73.6092 12.225ZM69.7791 11.7226C70.2116 12.1544 70.7978 12.3969 71.409 12.3969C72.0202 12.3969 72.6063 12.1544 73.0389 11.7226C73.2607 11.4955 73.4341 11.2258 73.5488 10.9298C73.6634 10.6338 73.7169 10.3176 73.7059 10.0004C73.7169 9.68314 73.6634 9.36697 73.5488 9.07096C73.4341 8.77496 73.2607 8.50526 73.0389 8.27818C72.6063 7.84639 72.0202 7.60387 71.409 7.60387C70.7978 7.60387 70.2116 7.84639 69.7791 8.27818C69.5576 8.50544 69.3844 8.77519 69.2699 9.07117C69.1555 9.36715 69.1021 9.68323 69.1131 10.0004C69.1021 10.3175 69.1555 10.6336 69.2699 10.9296C69.3844 11.2256 69.5576 11.4953 69.7791 11.7226Z" fill="white"/>
<path d="M75.575 13.0004V7.00038H76.5135L79.4295 11.6679H79.4627L79.4295 10.5116V7.00038H80.201V13.0004H79.3963L76.3455 8.10678H76.3123L76.3455 9.26308V13.0004H75.575Z" fill="white"/>
<path d="M47.4183 10.2436C47.4365 10.6105 47.3798 10.9773 47.2516 11.3217C47.1235 11.666 46.9267 11.9807 46.6731 12.2465C46.3889 12.5412 46.0456 12.7727 45.6658 12.9257C45.286 13.0786 44.8782 13.1497 44.469 13.1342C44.0572 13.1379 43.6488 13.0592 43.2679 12.9028C42.8869 12.7464 42.5411 12.5155 42.2507 12.2235C41.9603 11.9315 41.7312 11.5845 41.5768 11.2027C41.4225 10.8209 41.346 10.4121 41.3519 10.0004C41.346 9.58862 41.4225 9.17984 41.5769 8.79805C41.7313 8.41627 41.9604 8.06919 42.2508 7.7772C42.5412 7.48521 42.887 7.25419 43.2679 7.09773C43.6488 6.94127 44.0572 6.86251 44.469 6.86608C44.8924 6.8648 45.3115 6.9504 45.7005 7.11758C46.0617 7.26402 46.3833 7.49373 46.639 7.78798L46.1116 8.31578C45.9106 8.07923 45.658 7.89202 45.3732 7.76859C45.0884 7.64516 44.779 7.5888 44.469 7.60388C44.1569 7.60227 43.8477 7.66366 43.5599 7.78437C43.2721 7.90508 43.0116 8.08263 42.7941 8.30639C42.5765 8.53015 42.4064 8.79552 42.2938 9.08659C42.1812 9.37767 42.1286 9.68847 42.139 10.0004C42.1315 10.4676 42.263 10.9265 42.5167 11.3188C42.7704 11.7112 43.1349 12.0194 43.564 12.2044C43.9931 12.3893 44.4674 12.4427 44.9269 12.3577C45.3864 12.2727 45.8102 12.0532 46.1448 11.727C46.4527 11.3952 46.6311 10.9639 46.6477 10.5116H44.469V9.79088H47.3763C47.4038 9.94023 47.4178 10.0917 47.4183 10.2436Z" stroke="white" stroke-width="0.2" stroke-miterlimit="10"/>
<path d="M52.0276 7.73768H49.2952V9.63998H51.7591V10.3608H49.2952V12.2631H52.0276V13.0004H48.5247V7.00038H52.0276V7.73768Z" stroke="white" stroke-width="0.2" stroke-miterlimit="10"/>
<path d="M55.2786 13.0004H54.5071V7.73768H52.8313V7.00038H56.9544V7.73768H55.2786V13.0004Z" stroke="white" stroke-width="0.2" stroke-miterlimit="10"/>
<path d="M59.9378 13.0004V7.00038H60.7083V13.0004H59.9378Z" stroke="white" stroke-width="0.2" stroke-miterlimit="10"/>
<path d="M64.1282 13.0004H63.3567V7.73768H61.681V7.00038H65.804V7.73768H64.1282V13.0004Z" stroke="white" stroke-width="0.2" stroke-miterlimit="10"/>
<path d="M73.6092 12.225C73.0252 12.8072 72.2341 13.1342 71.4095 13.1342C70.5848 13.1342 69.7938 12.8072 69.2098 12.225C68.9209 11.9324 68.6937 11.5846 68.5419 11.2025C68.3901 10.8203 68.3167 10.4115 68.326 10.0004C68.3167 9.58927 68.3901 9.18048 68.5419 8.79831C68.6937 8.41614 68.9209 8.06841 69.2098 7.77578C69.4984 7.48705 69.8412 7.25808 70.2185 7.10198C70.5957 6.94588 71.0001 6.86572 71.4083 6.86608C71.8166 6.86645 72.2208 6.94733 72.5978 7.10409C72.9748 7.26086 73.3171 7.49044 73.6053 7.77968C73.8944 8.07154 74.122 8.4185 74.2744 8.79997C74.4269 9.18144 74.5013 9.58965 74.493 10.0004C74.5021 10.4115 74.4285 10.8202 74.2767 11.2023C74.1249 11.5844 73.8979 11.9322 73.6092 12.225ZM69.7791 11.7226C70.2116 12.1544 70.7978 12.3969 71.409 12.3969C72.0202 12.3969 72.6063 12.1544 73.0389 11.7226C73.2607 11.4955 73.4341 11.2258 73.5488 10.9298C73.6634 10.6338 73.7169 10.3176 73.7059 10.0004C73.7169 9.68314 73.6634 9.36697 73.5488 9.07096C73.4341 8.77496 73.2607 8.50526 73.0389 8.27818C72.6063 7.84639 72.0202 7.60387 71.409 7.60387C70.7978 7.60387 70.2116 7.84639 69.7791 8.27818C69.5576 8.50544 69.3844 8.77519 69.2699 9.07117C69.1555 9.36715 69.1021 9.68323 69.1131 10.0004C69.1021 10.3175 69.1555 10.6336 69.2699 10.9296C69.3844 11.2256 69.5576 11.4953 69.7791 11.7226Z" stroke="white" stroke-width="0.2" stroke-miterlimit="10"/>
<path d="M75.575 13.0004V7.00038H76.5135L79.4295 11.6679H79.4627L79.4295 10.5116V7.00038H80.201V13.0004H79.3963L76.3455 8.10678H76.3123L76.3455 9.26308V13.0004H75.575Z" stroke="white" stroke-width="0.2" stroke-miterlimit="10"/>
<path d="M68.1359 21.7519C67.2954 21.7551 66.4746 22.0073 65.7773 22.4766C65.08 22.9458 64.5374 23.6112 64.2179 24.3887C63.8985 25.1661 63.8166 26.0208 63.9825 26.8448C64.1484 27.6687 64.5548 28.4251 65.1503 29.0183C65.7457 29.6115 66.5036 30.0149 67.3282 30.1777C68.1528 30.3405 69.0071 30.2554 69.7834 29.933C70.5596 29.6106 71.2229 29.0654 71.6895 28.3663C72.1561 27.6672 72.4052 26.8456 72.4052 26.0051C72.4134 25.4429 72.3085 24.8848 72.0967 24.364C71.8849 23.8432 71.5704 23.3703 71.1721 22.9735C70.7738 22.5767 70.2997 22.264 69.7781 22.0542C69.2565 21.8443 68.698 21.7416 68.1359 21.7519ZM68.1359 28.5828C67.6182 28.6197 67.1015 28.4999 66.6529 28.239C66.2043 27.9781 65.8447 27.5882 65.6208 27.12C65.3969 26.6519 65.3191 26.1272 65.3976 25.6142C65.4761 25.1012 65.7072 24.6238 66.0609 24.244C66.4145 23.8642 66.8743 23.5997 67.3804 23.4849C67.8865 23.3701 68.4154 23.4104 68.8983 23.6004C69.3812 23.7904 69.7957 24.1214 70.0879 24.5503C70.38 24.9792 70.5363 25.4861 70.5363 26.0051C70.552 26.3329 70.5019 26.6606 70.3891 26.9688C70.2763 27.277 70.1029 27.5595 69.8792 27.7997C69.6555 28.0399 69.3861 28.2329 69.0867 28.3674C68.7873 28.5019 68.464 28.5751 68.1359 28.5828ZM58.8225 21.7519C57.982 21.7551 57.1612 22.0073 56.4639 22.4765C55.7666 22.9458 55.2239 23.6112 54.9045 24.3886C54.585 25.166 54.5031 26.0207 54.669 26.8447C54.8349 27.6687 55.2413 28.425 55.8367 29.0182C56.4322 29.6114 57.1901 30.0149 58.0147 30.1777C58.8393 30.3405 59.6936 30.2554 60.4698 29.933C61.2461 29.6106 61.9094 29.0654 62.376 28.3663C62.8426 27.6672 63.0917 26.8456 63.0917 26.0051C63.0999 25.4429 62.995 24.8848 62.7832 24.364C62.5714 23.8432 62.257 23.3703 61.8586 22.9735C61.4603 22.5767 60.9863 22.2641 60.4647 22.0542C59.9431 21.8444 59.3846 21.7416 58.8225 21.7519ZM58.8225 28.5828C58.3048 28.6197 57.7881 28.4999 57.3395 28.239C56.8909 27.9781 56.5313 27.5882 56.3074 27.12C56.0835 26.6519 56.0057 26.1272 56.0842 25.6142C56.1627 25.1012 56.3938 24.6238 56.7475 24.244C57.1011 23.8642 57.5609 23.5997 58.067 23.4849C58.5731 23.3701 59.102 23.4104 59.5849 23.6004C60.0678 23.7904 60.4823 24.1214 60.7745 24.5503C61.0666 24.9792 61.2229 25.4861 61.2229 26.0051C61.2386 26.3329 61.1886 26.6606 61.0757 26.9688C60.9629 27.277 60.7895 27.5595 60.5658 27.7997C60.3422 28.0399 60.0727 28.2329 59.7733 28.3674C59.4739 28.5019 59.1506 28.5751 58.8225 28.5828ZM47.7437 23.0569V24.8612H52.0614C51.9991 25.7076 51.6528 26.508 51.0786 27.1329C50.6459 27.5739 50.1256 27.9193 49.5511 28.1468C48.9767 28.3744 48.361 28.479 47.7437 28.4538C46.4816 28.4368 45.2771 27.9234 44.3907 27.025C43.5043 26.1265 43.0073 24.9151 43.0073 23.653C43.0073 22.3908 43.5043 21.1794 44.3907 20.2809C45.2771 19.3825 46.4816 18.8691 47.7437 18.8521C48.9559 18.8362 50.1254 19.2994 50.9981 20.1409L52.2708 18.8682C51.6753 18.2787 50.9682 17.814 50.1908 17.5014C49.4134 17.1888 48.5814 17.0345 47.7437 17.0476C46.8682 17.0349 45.9988 17.1963 45.1863 17.5226C44.3737 17.8488 43.6341 18.3333 43.0105 18.9479C42.3868 19.5625 41.8916 20.295 41.5536 21.1027C41.2156 21.9105 41.0415 22.7773 41.0415 23.653C41.0415 24.5286 41.2156 25.3954 41.5536 26.2032C41.8916 27.0109 42.3868 27.7434 43.0105 28.358C43.6341 28.9726 44.3737 29.4571 45.1863 29.7833C45.9988 30.1096 46.8682 30.271 47.7437 30.2582C48.5991 30.2937 49.4524 30.1469 50.2467 29.8275C51.0411 29.508 51.7585 29.0234 52.3513 28.4056C53.4037 27.2568 53.9646 25.7418 53.9141 24.1847C53.9182 23.8065 53.8858 23.4289 53.8173 23.0569H47.7437ZM93.052 24.4585C92.7964 23.6881 92.3098 23.0151 91.6584 22.5309C91.007 22.0466 90.2223 21.7747 89.411 21.7519C88.8645 21.7553 88.3244 21.8695 87.8233 22.0875C87.3222 22.3056 86.8705 22.623 86.4956 23.0205C86.1206 23.4181 85.8302 23.8875 85.6418 24.4005C85.4534 24.9135 85.371 25.4593 85.3996 26.0051C85.3873 26.5642 85.4878 27.1202 85.6951 27.6396C85.9025 28.1591 86.2124 28.6314 86.6064 29.0284C87.0004 29.4254 87.4703 29.7389 87.9882 29.9502C88.5061 30.1615 89.0612 30.2663 89.6205 30.2582C90.3211 30.2621 91.0118 30.0919 91.6304 29.7629C92.249 29.4339 92.7762 28.9565 93.1647 28.3734L91.7148 27.4067C91.4976 27.7675 91.1903 28.0656 90.8231 28.2717C90.456 28.4779 90.0415 28.5851 89.6205 28.5828C89.1872 28.5993 88.7589 28.4853 88.3912 28.2555C88.0234 28.0257 87.7333 27.6907 87.5583 27.2939L93.2454 24.9419L93.052 24.4585ZM87.2523 25.8762C87.2322 25.5667 87.2742 25.2562 87.3755 24.9631C87.4769 24.6699 87.6358 24.3999 87.8428 24.1689C88.0498 23.9379 88.3008 23.7505 88.5812 23.6176C88.8615 23.4848 89.1655 23.4092 89.4754 23.3953C89.7981 23.374 90.1198 23.4483 90.4006 23.6087C90.6814 23.7691 90.9087 24.0087 91.0543 24.2974L87.2523 25.8762ZM82.6285 30.0005H84.4973V17.4988H82.6285V30.0005ZM79.5675 22.7024H79.5031C79.2189 22.3938 78.8722 22.1493 78.486 21.9854C78.0998 21.8215 77.6831 21.7419 77.2637 21.7519C76.167 21.7986 75.1307 22.2671 74.3712 23.0596C73.6117 23.8521 73.1877 24.9074 73.1877 26.0051C73.1877 27.1028 73.6117 28.158 74.3712 28.9506C75.1307 29.7431 76.167 30.2116 77.2637 30.2582C77.6847 30.2695 78.1032 30.1888 78.4899 30.0219C78.8767 29.8549 79.2224 29.6057 79.5031 29.2917H79.5675V29.9039C79.5675 31.5311 78.6976 32.4009 77.2959 32.4009C76.8287 32.3898 76.3755 32.2398 75.9939 31.9701C75.6124 31.7004 75.3197 31.3232 75.1533 30.8865L73.5261 31.5632C73.8328 32.3099 74.3554 32.948 75.027 33.3958C75.6987 33.8435 76.4887 34.0805 77.2959 34.0764C79.487 34.0764 81.3397 32.7876 81.3397 29.646V22.0096H79.5675V22.7024ZM77.4249 28.5828C76.7789 28.528 76.1771 28.2327 75.7385 27.7553C75.2999 27.278 75.0565 26.6534 75.0565 26.0051C75.0565 25.3568 75.2999 24.7322 75.7385 24.2549C76.1771 23.7775 76.7789 23.4822 77.4249 23.4275C77.7462 23.4431 78.0611 23.5234 78.3508 23.6634C78.6405 23.8034 78.899 24.0002 79.111 24.2423C79.323 24.4843 79.4841 24.7666 79.5846 25.0722C79.6852 25.3778 79.7232 25.7005 79.6964 26.0212C79.7215 26.3398 79.6821 26.6602 79.5805 26.9633C79.479 27.2663 79.3173 27.5458 79.1053 27.7849C78.8932 28.0241 78.6351 28.218 78.3464 28.3551C78.0576 28.4921 77.7442 28.5696 77.4249 28.5828ZM101.806 17.4991H97.3347V30.0005H99.2004V25.264H101.806C102.334 25.293 102.862 25.214 103.358 25.032C103.854 24.8499 104.308 24.5686 104.692 24.2053C105.076 23.8419 105.381 23.4041 105.59 22.9186C105.799 22.4331 105.907 21.9101 105.907 21.3815C105.907 20.853 105.799 20.33 105.59 19.8445C105.381 19.359 105.076 18.9212 104.692 18.5578C104.308 18.1945 103.854 17.9132 103.358 17.7311C102.862 17.5491 102.334 17.4701 101.806 17.4991ZM101.854 23.5243H99.2004V19.239H101.854C102.139 19.233 102.423 19.2841 102.688 19.3891C102.953 19.4941 103.194 19.651 103.398 19.8506C103.602 20.0501 103.764 20.2883 103.874 20.5512C103.985 20.8141 104.042 21.0964 104.042 21.3816C104.042 21.6668 103.985 21.9491 103.874 22.212C103.764 22.4749 103.602 22.7131 103.398 22.9126C103.194 23.1122 102.953 23.2691 102.688 23.3741C102.423 23.4791 102.139 23.5302 101.854 23.5243ZM113.386 21.729C112.705 21.6892 112.027 21.8491 111.436 22.1891C110.844 22.5291 110.365 23.0343 110.056 23.6428L111.713 24.3344C111.877 24.0324 112.126 23.7848 112.429 23.622C112.732 23.4592 113.075 23.3882 113.418 23.4177C113.891 23.3714 114.364 23.5148 114.731 23.8163C115.099 24.1177 115.332 24.5528 115.38 25.0259V25.1546C114.781 24.8363 114.112 24.6706 113.434 24.6721C111.649 24.6721 109.831 25.6532 109.831 27.4867C109.849 27.8732 109.944 28.2521 110.11 28.6012C110.277 28.9503 110.512 29.2623 110.801 29.5189C111.091 29.7754 111.429 29.9711 111.795 30.0945C112.162 30.2178 112.55 30.2663 112.935 30.2369C113.405 30.2646 113.874 30.1658 114.292 29.9508C114.711 29.7359 115.064 29.4126 115.316 29.0147H115.38V29.9797H117.181V25.1868C117.181 22.9673 115.525 21.729 113.386 21.729ZM113.161 28.5803C112.549 28.5803 111.697 28.2748 111.697 27.5189C111.697 26.554 112.758 26.184 113.675 26.184C114.271 26.1681 114.86 26.3125 115.38 26.6021C115.312 27.1444 115.049 27.6435 114.641 28.0071C114.233 28.3708 113.707 28.5744 113.161 28.5803ZM123.743 22.0023L121.604 27.4223H121.54L119.32 22.0023H117.31L120.639 29.5775L118.741 33.7913H120.687L125.818 22.0023H123.743ZM106.936 30.0005H108.802V17.4991H106.936V30.0005Z" fill="white"/>
<path d="M10.4352 7.53842C10.1073 7.93049 9.9417 8.43312 9.97238 8.94332V31.0594C9.94161 31.5696 10.1072 32.0723 10.4352 32.4643L10.5092 32.5364L22.8982 20.1475V19.8552L10.5092 7.46582L10.4352 7.53842Z" fill="url(#paint0_linear_11032_117602)"/>
<path d="M27.0273 24.2787L22.8979 20.1473V19.855L27.0283 15.7246L27.1214 15.7777L32.0142 18.5578C33.4118 19.3518 33.4118 20.651 32.0142 21.4455L27.1214 24.2256L27.0273 24.2787Z" fill="url(#paint1_linear_11032_117602)"/>
<path d="M27.1216 24.2251L22.8981 20.0012L10.4351 32.4641C10.7198 32.7153 11.0835 32.8589 11.463 32.8701C11.8426 32.8813 12.2141 32.7594 12.5132 32.5255L27.1216 24.2251Z" fill="url(#paint2_linear_11032_117602)"/>
<path d="M27.1216 15.7773L12.5132 7.4769C12.2141 7.24299 11.8426 7.12109 11.463 7.1323C11.0835 7.14352 10.7198 7.28714 10.4351 7.5383L22.8981 20.0013L27.1216 15.7773Z" fill="url(#paint3_linear_11032_117602)"/>
<path opacity="0.2" d="M27.0285 24.1323L12.5132 32.3796C12.2256 32.5986 11.8746 32.718 11.5131 32.7199C11.1517 32.7219 10.7995 32.6062 10.5096 32.3903L10.4351 32.4648L10.5091 32.5369L10.5096 32.5364C10.7994 32.7524 11.1517 32.8681 11.5131 32.8662C11.8746 32.8643 12.2256 32.7448 12.5132 32.5257L27.1216 24.2253L27.0285 24.1323Z" fill="black"/>
<path opacity="0.12" d="M10.4352 32.3187C10.1073 31.9266 9.94171 31.424 9.97236 30.9138V31.0599C9.94169 31.5701 10.1073 32.0727 10.4352 32.4648L10.5097 32.3903L10.4352 32.3187Z" fill="black"/>
<path opacity="0.12" d="M32.0147 21.299L27.0288 24.1322L27.1219 24.2252L32.0147 21.4451C32.3025 21.3202 32.5516 21.1204 32.736 20.8666C32.9203 20.6127 33.0333 20.314 33.063 20.0017C33.0011 20.2846 32.8742 20.5491 32.6922 20.7743C32.5102 20.9995 32.2783 21.1791 32.0147 21.299Z" fill="black"/>
<path opacity="0.25" d="M12.5131 7.62359L32.0143 18.7036C32.2779 18.8234 32.51 19.0032 32.692 19.2285C32.8739 19.4538 33.0009 19.7184 33.0626 20.0014C33.033 19.6889 32.9202 19.3901 32.7358 19.1361C32.5514 18.8822 32.3022 18.6823 32.0143 18.5575L12.5131 7.47749C11.1155 6.68339 9.97217 7.34299 9.97217 8.94379V9.08989C9.97217 7.48919 11.1155 6.82959 12.5131 7.62359Z" fill="white"/>
</g>
<defs>
<linearGradient id="paint0_linear_11032_117602" x1="21.7995" y1="8.71013" x2="5.01711" y2="25.4925" gradientUnits="userSpaceOnUse">
<stop stop-color="#00A0FF"/>
<stop offset="0.00657" stop-color="#00A1FF"/>
<stop offset="0.2601" stop-color="#00BEFF"/>
<stop offset="0.5122" stop-color="#00D2FF"/>
<stop offset="0.7604" stop-color="#00DFFF"/>
<stop offset="1" stop-color="#00E3FF"/>
</linearGradient>
<linearGradient id="paint1_linear_11032_117602" x1="33.8339" y1="20.0017" x2="9.63703" y2="20.0017" gradientUnits="userSpaceOnUse">
<stop stop-color="#FFE000"/>
<stop offset="0.4087" stop-color="#FFBD00"/>
<stop offset="0.7754" stop-color="#FFA500"/>
<stop offset="1" stop-color="#FF9C00"/>
</linearGradient>
<linearGradient id="paint2_linear_11032_117602" x1="24.8266" y1="22.2963" x2="2.06833" y2="45.0546" gradientUnits="userSpaceOnUse">
<stop stop-color="#FF3A44"/>
<stop offset="1" stop-color="#C31162"/>
</linearGradient>
<linearGradient id="paint3_linear_11032_117602" x1="7.29699" y1="0.176481" x2="17.4595" y2="10.339" gradientUnits="userSpaceOnUse">
<stop stop-color="#32A071"/>
<stop offset="0.0685" stop-color="#2DA771"/>
<stop offset="0.4762" stop-color="#15CF74"/>
<stop offset="0.8009" stop-color="#06E775"/>
<stop offset="1" stop-color="#00F076"/>
</linearGradient>
<clipPath id="clip0_11032_117602">
<rect width="135" height="40.0002" fill="white" transform="translate(0 0.000244141)"/>
</clipPath>
</defs>
</svg>
