<svg width="135" height="40" viewBox="0 0 135 40" fill="none" xmlns="http://www.w3.org/2000/svg">
<g clip-path="url(#clip0_11032_117603)">
<path fill-rule="evenodd" clip-rule="evenodd" d="M10.7566 0.000245861H124.249C124.655 0.000245861 125.067 0.000115861 125.472 0.00211586C125.753 0.0037076 126.039 0.00790461 126.322 0.0120472C126.386 0.0129796 126.449 0.0139093 126.512 0.0148059C127.269 0.0222536 128.023 0.0813486 128.769 0.191566C129.518 0.304486 130.243 0.515813 130.921 0.818566C132.278 1.43627 133.383 2.41544 134.079 3.61837C134.419 4.21775 134.655 4.85953 134.777 5.52169C134.903 6.18348 134.973 6.85267 134.987 7.52369C134.991 7.83033 134.991 8.13795 134.991 8.44458C135 8.80688 135 9.17017 135 9.53638V30.465C135 30.8342 135 31.1955 134.991 31.5588C134.991 31.8693 134.991 32.1701 134.987 32.4807C134.973 33.1517 134.903 33.8209 134.777 34.4826C134.655 35.1452 134.42 35.7873 134.079 36.3869C133.733 36.9837 133.283 37.5285 132.746 38.0012C132.213 38.4781 131.597 38.876 130.921 39.1799C130.243 39.4835 129.518 39.6961 128.769 39.8107C128.023 39.9201 127.268 39.9792 126.512 39.9875C126.169 39.9943 125.816 39.9982 125.472 39.9982C125.067 40.0002 124.655 40.0002 124.249 40.0002H10.7566C10.343 40.0002 9.93419 40.0002 9.5216 39.9982C9.17621 39.9982 8.83358 39.9943 8.48488 39.9875C7.72738 39.9787 6.9717 39.9196 6.22416 39.8107C5.47772 39.6969 4.75481 39.4842 4.07967 39.1799C3.40371 38.8762 2.78717 38.4783 2.25357 38.0012C1.71505 37.5303 1.26616 36.9851 0.924356 36.3869C0.581124 35.7878 0.343339 35.1456 0.219258 34.4826C0.0936522 33.821 0.0260614 33.1517 0.0170916 32.4807C0.00993901 32.2685 0.00715699 32.0609 0.00435296 31.8516C0.0030527 31.7546 0.00174771 31.6572 0 31.5588V8.44458C0.00176842 8.34629 0.00308357 8.24789 0.00439918 8.14946C0.0071877 7.94083 0.00997831 7.73204 0.0170916 7.52373C0.0260586 6.85277 0.0936495 6.18343 0.219258 5.52173C0.343683 4.85918 0.581453 4.21735 0.924356 3.61841C1.26632 3.01826 1.71514 2.47088 2.25357 1.99732C2.7892 1.52241 3.40534 1.12472 4.07967 0.818656C4.75482 0.515162 5.4778 0.303778 6.22416 0.191656C6.97157 0.0819221 7.72733 0.0228477 8.48488 0.0149459C8.55727 0.0139307 8.6294 0.0128758 8.70135 0.0118237C8.97596 0.0078077 9.24792 0.00383065 9.5216 0.00224586C9.9342 0.000245861 10.3429 0.000245861 10.7566 0.000245861ZM8.40804 39.1175C8.74966 39.1243 9.08566 39.1283 9.42998 39.1283L124.35 39.1302L125.576 39.1283C125.912 39.1283 126.259 39.1243 126.59 39.1175C127.297 39.1099 128.004 39.0554 128.702 38.9544C129.358 38.8559 129.993 38.6706 130.587 38.4045C131.173 38.141 131.707 37.7957 132.169 37.3818C132.631 36.9761 133.018 36.5083 133.316 35.9958C133.615 35.47 133.821 34.9066 133.927 34.3254C134.042 33.7125 134.106 33.0929 134.12 32.4716C134.124 32.1649 134.124 31.8669 134.124 31.5417C134.133 31.1842 134.133 30.8296 134.133 30.4662V9.53319C134.133 9.17326 134.133 8.81625 134.124 8.44117C134.124 8.13837 134.124 7.83411 134.121 7.55085C134.107 6.91826 134.042 6.28738 133.924 5.66324C133.818 5.08964 133.614 4.5336 133.32 4.01398C132.718 2.97486 131.763 2.1285 130.59 1.59354C129.995 1.32896 129.359 1.14428 128.702 1.04558C128.008 0.944718 127.306 0.890356 126.602 0.882955L125.57 0.870252H9.43053L8.41082 0.882465C7.70067 0.890252 6.99218 0.945104 6.29129 1.04656C5.6412 1.14404 5.01136 1.32744 4.42286 1.59061C3.83742 1.85606 3.30266 2.20115 2.83807 2.6133C2.37296 3.02156 1.98554 3.49374 1.69085 4.01154C1.39165 4.53477 1.18454 5.09539 1.07668 5.67399C0.960772 6.29304 0.898236 6.919 0.889618 7.54645C0.883007 7.74962 0.873016 8.44117 0.873016 8.44117V31.5466C0.873016 31.5466 0.882396 32.2489 0.889561 32.4599C0.898562 33.0883 0.961463 33.7152 1.07772 34.3353C1.18538 34.9123 1.39233 35.4713 1.69137 35.9928C1.98715 36.5109 2.37673 36.9828 2.84466 37.3896C3.30591 37.8012 3.83897 38.1446 4.42342 38.4064C5.01327 38.6704 5.6443 38.8551 6.29571 38.9544C6.9943 39.0549 7.70034 39.1094 8.40804 39.1175Z" fill="#A6A6A6"/>
<path d="M9.43001 39.1284C9.08569 39.1284 8.74969 39.1245 8.40807 39.1177C7.70037 39.1095 6.99433 39.055 6.29574 38.9545C5.64433 38.8552 5.0133 38.6705 4.42345 38.4065C3.839 38.1447 3.30594 37.8014 2.84469 37.3897C2.37676 36.9829 1.98718 36.5111 1.6914 35.9929C1.39236 35.4714 1.18541 34.9124 1.07775 34.3354C0.961494 33.7153 0.898592 33.0884 0.889592 32.46C0.882427 32.249 0.873047 31.5467 0.873047 31.5467V8.44128C0.873047 8.44128 0.883037 7.74973 0.889648 7.54656C0.898266 6.91911 0.960802 6.29315 1.07671 5.6741C1.18457 5.0955 1.39168 4.53488 1.69088 4.01165C1.98557 3.49385 2.37299 3.02167 2.8381 2.61341C3.30269 2.20126 3.83745 1.85617 4.42289 1.59072C5.01139 1.32755 5.64123 1.14415 6.29132 1.04667C6.99221 0.945213 7.7007 0.890362 8.41085 0.882574L9.43056 0.870361H125.57L126.602 0.883064C127.306 0.890465 128.008 0.944827 128.702 1.04569C129.359 1.14439 129.995 1.32907 130.59 1.59365C131.763 2.12861 132.718 2.97496 133.32 4.01409C133.614 4.53371 133.818 5.08975 133.924 5.66335C134.042 6.28749 134.107 6.91836 134.121 7.55096C134.124 7.83422 134.124 8.13848 134.124 8.44128C134.133 8.81636 134.133 9.17337 134.133 9.5333V30.4663C134.133 30.8297 134.133 31.1843 134.124 31.5418C134.124 31.867 134.124 32.165 134.12 32.4717C134.107 33.093 134.042 33.7126 133.927 34.3256C133.821 34.9067 133.615 35.4701 133.316 35.9959C133.018 36.5084 132.631 36.9762 132.169 37.3819C131.707 37.7958 131.173 38.1411 130.587 38.4046C129.994 38.6707 129.358 38.856 128.702 38.9545C128.004 39.0555 127.297 39.11 126.59 39.1177C126.259 39.1245 125.912 39.1284 125.576 39.1284L124.35 39.1304L9.43001 39.1284Z" fill="black"/>
<path d="M32.7973 20.3008C32.8081 19.4662 33.0298 18.6478 33.4418 17.9218C33.8538 17.1959 34.4428 16.5859 35.1539 16.1488C34.7021 15.5036 34.1062 14.9727 33.4134 14.5981C32.7205 14.2236 31.9499 14.0157 31.1627 13.9911C29.4835 13.8148 27.8555 14.9959 26.9998 14.9959C26.1275 14.9959 24.81 14.0086 23.3913 14.0378C22.4736 14.0674 21.5793 14.3343 20.7954 14.8123C20.0115 15.2904 19.3649 15.9633 18.9184 16.7656C16.9844 20.1141 18.427 25.0351 20.2796 27.7417C21.2065 29.0671 22.2898 30.5475 23.7072 30.495C25.0943 30.4375 25.6123 29.6105 27.2866 29.6105C28.9454 29.6105 29.4314 30.495 30.8776 30.4616C32.366 30.4375 33.3038 29.1304 34.1981 27.7925C34.8641 26.8481 35.3766 25.8044 35.7166 24.7C34.8518 24.3343 34.1139 23.7221 33.5948 22.9398C33.0757 22.1575 32.7983 21.2397 32.7973 20.3008Z" fill="white"/>
<path d="M30.0659 12.2111C30.8774 11.2369 31.2772 9.98469 31.1804 8.72046C29.9406 8.85068 28.7953 9.44324 27.9728 10.3801C27.5707 10.8377 27.2627 11.3702 27.0664 11.9469C26.8702 12.5237 26.7896 13.1335 26.8291 13.7415C27.4493 13.7478 28.0628 13.6134 28.6234 13.3483C29.1841 13.0833 29.6773 12.6944 30.0659 12.2111Z" fill="white"/>
<path d="M50.3306 27.1399H45.5972L44.4604 30.4964H42.4556L46.939 18.0784H49.022L53.5054 30.4964H51.4663L50.3306 27.1399ZM46.0874 25.5911H49.8394L47.9898 20.1438H47.938L46.0874 25.5911Z" fill="white"/>
<path d="M63.188 25.97C63.188 28.7835 61.6821 30.5911 59.4097 30.5911C58.834 30.6212 58.2615 30.4886 57.7577 30.2085C57.2539 29.9284 56.8392 29.512 56.561 29.0071H56.518V33.4915H54.6596V21.4427H56.4585V22.9485H56.4927C56.7836 22.4461 57.2054 22.0319 57.713 21.75C58.2206 21.4682 58.7952 21.3292 59.3755 21.3479C61.6733 21.348 63.188 23.1644 63.188 25.97ZM61.2778 25.97C61.2778 24.137 60.3306 22.9319 58.8852 22.9319C57.4653 22.9319 56.5102 24.1624 56.5102 25.97C56.5102 27.7942 57.4653 29.0159 58.8852 29.0159C60.3306 29.0159 61.2778 27.8196 61.2778 25.97Z" fill="white"/>
<path d="M73.1528 25.97C73.1528 28.7835 71.647 30.5911 69.3745 30.5911C68.7989 30.6212 68.2264 30.4886 67.7226 30.2085C67.2188 29.9284 66.804 29.512 66.5259 29.0071H66.4829V33.4915H64.6245V21.4427H66.4233V22.9485H66.4575C66.7484 22.4461 67.1702 22.0319 67.6778 21.75C68.1854 21.4682 68.76 21.3292 69.3403 21.348C71.6382 21.348 73.1528 23.1644 73.1528 25.97ZM71.2427 25.97C71.2427 24.137 70.2954 22.9319 68.8501 22.9319C67.4302 22.9319 66.4751 24.1624 66.4751 25.97C66.4751 27.7942 67.4302 29.0159 68.8501 29.0159C70.2954 29.0159 71.2427 27.8196 71.2427 25.97Z" fill="white"/>
<path d="M79.7388 27.0364C79.8765 28.2679 81.0728 29.0764 82.7075 29.0764C84.2739 29.0764 85.4009 28.2678 85.4009 27.1575C85.4009 26.1936 84.7212 25.6165 83.1118 25.221L81.5024 24.8333C79.2222 24.2825 78.1636 23.2161 78.1636 21.4856C78.1636 19.343 80.0308 17.8713 82.6821 17.8713C85.3061 17.8713 87.105 19.343 87.1655 21.4856H85.2895C85.1772 20.2463 84.1528 19.4983 82.6557 19.4983C81.1587 19.4983 80.1343 20.2551 80.1343 21.3567C80.1343 22.2346 80.7886 22.7512 82.3891 23.1467L83.7573 23.4826C86.3051 24.0852 87.3637 25.1086 87.3637 26.925C87.3637 29.2483 85.5132 30.7033 82.5698 30.7033C79.8159 30.7033 77.9565 29.2824 77.8364 27.0363L79.7388 27.0364Z" fill="white"/>
<path d="M91.3745 19.3001V21.4427H93.0962V22.9144H91.3745V27.9056C91.3745 28.681 91.7192 29.0423 92.4761 29.0423C92.6805 29.0387 92.8845 29.0244 93.0874 28.9993V30.4622C92.7471 30.5258 92.4013 30.5546 92.0552 30.5481C90.2222 30.5481 89.5073 29.8596 89.5073 28.1038V22.9144H88.1909V21.4427H89.5073V19.3001H91.3745Z" fill="white"/>
<path d="M94.0933 25.97C94.0933 23.1214 95.771 21.3314 98.3872 21.3314C101.012 21.3314 102.682 23.1214 102.682 25.97C102.682 28.8265 101.021 30.6087 98.3872 30.6087C95.7544 30.6087 94.0933 28.8265 94.0933 25.97ZM100.789 25.97C100.789 24.0159 99.8931 22.8626 98.3872 22.8626C96.8814 22.8626 95.9868 24.0247 95.9868 25.97C95.9868 27.9319 96.8814 29.0765 98.3872 29.0765C99.8931 29.0765 100.789 27.9319 100.789 25.97Z" fill="white"/>
<path d="M104.214 21.4427H105.987V22.9837H106.03C106.15 22.5024 106.432 22.0771 106.828 21.7792C107.225 21.4813 107.712 21.329 108.208 21.3479C108.422 21.3472 108.635 21.3704 108.844 21.4173V23.1556C108.574 23.0729 108.292 23.035 108.009 23.0433C107.739 23.0323 107.47 23.0799 107.22 23.1828C106.97 23.2857 106.746 23.4414 106.562 23.6393C106.378 23.8372 106.239 24.0726 106.154 24.3292C106.07 24.5859 106.042 24.8578 106.073 25.1263V30.4964H104.214L104.214 21.4427Z" fill="white"/>
<path d="M117.413 27.8372C117.163 29.4808 115.562 30.6087 113.514 30.6087C110.88 30.6087 109.246 28.844 109.246 26.013C109.246 23.1731 110.889 21.3313 113.436 21.3313C115.941 21.3313 117.516 23.052 117.516 25.7972V26.4339H111.122V26.5462C111.092 26.8794 111.134 27.2151 111.244 27.5309C111.354 27.8467 111.53 28.1355 111.761 28.3781C111.991 28.6206 112.27 28.8114 112.58 28.9377C112.89 29.064 113.223 29.1229 113.557 29.1106C113.996 29.1518 114.437 29.0501 114.814 28.8206C115.19 28.5912 115.483 28.2463 115.648 27.8372L117.413 27.8372ZM111.13 25.1351H115.657C115.673 24.8355 115.628 24.5357 115.523 24.2544C115.419 23.9732 115.257 23.7167 115.048 23.5009C114.84 23.2852 114.589 23.1148 114.312 23.0006C114.034 22.8864 113.736 22.8308 113.436 22.8372C113.133 22.8354 112.833 22.8935 112.553 23.0083C112.273 23.123 112.019 23.2921 111.804 23.5057C111.59 23.7194 111.42 23.9733 111.304 24.253C111.189 24.5326 111.13 24.8324 111.13 25.1351Z" fill="white"/>
<path d="M45.8545 8.73126C46.2441 8.7033 46.6351 8.76216 46.9992 8.90359C47.3633 9.04502 47.6915 9.2655 47.9601 9.54913C48.2286 9.83275 48.4309 10.1725 48.5523 10.5437C48.6737 10.915 48.7112 11.3086 48.6621 11.6961C48.6621 13.6023 47.6318 14.6981 45.8545 14.6981H43.6992V8.73126H45.8545ZM44.626 13.8543H45.751C46.0294 13.8709 46.308 13.8252 46.5665 13.7206C46.8251 13.616 47.057 13.4551 47.2455 13.2495C47.434 13.0439 47.5743 12.7989 47.6562 12.5323C47.738 12.2657 47.7594 11.9842 47.7187 11.7083C47.7564 11.4334 47.7329 11.1537 47.6498 10.889C47.5667 10.6243 47.426 10.3813 47.238 10.1774C47.0499 9.97346 46.8191 9.81365 46.562 9.70941C46.3049 9.60518 46.028 9.55909 45.751 9.57447H44.626V13.8543Z" fill="white"/>
<path d="M49.709 12.4446C49.6807 12.1487 49.7145 11.8501 49.8084 11.568C49.9022 11.286 50.054 11.0266 50.2539 10.8066C50.4538 10.5867 50.6976 10.4109 50.9694 10.2906C51.2413 10.1703 51.5352 10.1082 51.8325 10.1082C52.1298 10.1082 52.4238 10.1703 52.6956 10.2906C52.9675 10.4109 53.2112 10.5867 53.4111 10.8066C53.6111 11.0266 53.7628 11.286 53.8567 11.568C53.9505 11.8501 53.9844 12.1487 53.956 12.4446C53.9849 12.7408 53.9514 13.0398 53.8579 13.3223C53.7643 13.6048 53.6126 13.8647 53.4126 14.0851C53.2126 14.3055 52.9687 14.4816 52.6966 14.6022C52.4245 14.7227 52.1301 14.785 51.8325 14.785C51.5349 14.785 51.2406 14.7227 50.9684 14.6022C50.6963 14.4816 50.4524 14.3055 50.2524 14.0851C50.0524 13.8647 49.9008 13.6048 49.8072 13.3223C49.7136 13.0398 49.6801 12.7408 49.709 12.4446ZM53.042 12.4446C53.042 11.4685 52.6035 10.8977 51.834 10.8977C51.0615 10.8977 50.627 11.4685 50.627 12.4446C50.627 13.4285 51.0615 13.9949 51.834 13.9949C52.6035 13.9949 53.042 13.4246 53.042 12.4446Z" fill="white"/>
<path d="M59.6016 14.698H58.6797L57.749 11.3816H57.6787L56.752 14.698H55.8389L54.5977 10.1951H55.499L56.3057 13.6311H56.3721L57.2979 10.1951H58.1504L59.0762 13.6311H59.1465L59.9492 10.1951H60.8379L59.6016 14.698Z" fill="white"/>
<path d="M61.8818 10.1951H62.7373V10.9104H62.8037C62.9164 10.6535 63.1064 10.4381 63.3472 10.2943C63.5881 10.1505 63.8678 10.0854 64.1475 10.1082C64.3666 10.0917 64.5866 10.1247 64.7912 10.2048C64.9958 10.2849 65.1797 10.41 65.3294 10.5709C65.4791 10.7317 65.5906 10.9242 65.6558 11.134C65.7211 11.3438 65.7382 11.5656 65.706 11.783V14.698H64.8174V12.0061C64.8174 11.2825 64.5029 10.9226 63.8457 10.9226C63.6969 10.9157 63.5484 10.941 63.4104 10.9968C63.2723 11.0527 63.148 11.1377 63.0459 11.2461C62.9437 11.3545 62.8662 11.4836 62.8187 11.6248C62.7712 11.7659 62.7547 11.9156 62.7705 12.0637V14.698H61.8818L61.8818 10.1951Z" fill="white"/>
<path d="M67.1221 8.43726H68.0107V14.698H67.1221V8.43726Z" fill="white"/>
<path d="M69.2461 12.4446C69.2178 12.1487 69.2517 11.8501 69.3455 11.568C69.4394 11.2859 69.5912 11.0266 69.7911 10.8066C69.9911 10.5866 70.2348 10.4108 70.5067 10.2905C70.7786 10.1703 71.0726 10.1081 71.3699 10.1081C71.6672 10.1081 71.9612 10.1703 72.233 10.2905C72.5049 10.4108 72.7486 10.5866 72.9486 10.8066C73.1486 11.0266 73.3003 11.2859 73.3942 11.568C73.4881 11.8501 73.5219 12.1487 73.4936 12.4446C73.5225 12.7408 73.489 13.0398 73.3954 13.3223C73.3017 13.6049 73.15 13.8647 72.95 14.0851C72.75 14.3055 72.5061 14.4816 72.234 14.6021C71.9618 14.7227 71.6675 14.7849 71.3699 14.7849C71.0722 14.7849 70.7779 14.7227 70.5058 14.6021C70.2336 14.4816 69.9897 14.3055 69.7897 14.0851C69.5897 13.8647 69.438 13.6049 69.3444 13.3223C69.2508 13.0398 69.2173 12.7408 69.2461 12.4446ZM72.5791 12.4446C72.5791 11.4685 72.1406 10.8977 71.3711 10.8977C70.5986 10.8977 70.1641 11.4685 70.1641 12.4446C70.1641 13.4285 70.5987 13.9949 71.3711 13.9949C72.1406 13.9949 72.5791 13.4246 72.5791 12.4446Z" fill="white"/>
<path d="M74.4292 13.4246C74.4292 12.614 75.0327 12.1467 76.104 12.0803L77.3237 12.01V11.6214C77.3237 11.1458 77.0093 10.8772 76.4019 10.8772C75.9058 10.8772 75.562 11.0593 75.4634 11.3777H74.603C74.6938 10.6043 75.4214 10.1082 76.4429 10.1082C77.5718 10.1082 78.2085 10.6702 78.2085 11.6214V14.698H77.353V14.0652H77.2827C77.14 14.2922 76.9396 14.4772 76.702 14.6015C76.4643 14.7257 76.198 14.7846 75.9302 14.7722C75.7411 14.7919 75.5501 14.7717 75.3693 14.713C75.1886 14.6543 75.0221 14.5584 74.8807 14.4314C74.7393 14.3044 74.626 14.1492 74.5483 13.9758C74.4705 13.8024 74.4299 13.6146 74.4292 13.4246ZM77.3237 13.0398V12.6633L76.2241 12.7337C75.604 12.7752 75.3227 12.9861 75.3227 13.3831C75.3227 13.7883 75.6743 14.0242 76.1577 14.0242C76.2994 14.0385 76.4425 14.0242 76.5785 13.9821C76.7145 13.94 76.8406 13.871 76.9494 13.7792C77.0582 13.6873 77.1474 13.5745 77.2117 13.4475C77.276 13.3205 77.3141 13.1818 77.3237 13.0398Z" fill="white"/>
<path d="M79.3765 12.4446C79.3765 11.0217 80.1079 10.1204 81.2456 10.1204C81.527 10.1074 81.8063 10.1748 82.0508 10.3147C82.2954 10.4546 82.495 10.6612 82.6265 10.9104H82.6929V8.43726H83.5815V14.698H82.73V13.9866H82.6597C82.5181 14.2341 82.3114 14.4381 82.0622 14.5766C81.8129 14.7151 81.5306 14.7827 81.2456 14.7722C80.1001 14.7723 79.3765 13.8709 79.3765 12.4446ZM80.2945 12.4446C80.2945 13.3997 80.7447 13.9744 81.4976 13.9744C82.2466 13.9744 82.7095 13.3914 82.7095 12.4485C82.7095 11.51 82.2417 10.9187 81.4976 10.9187C80.7495 10.9187 80.2945 11.4973 80.2945 12.4446Z" fill="white"/>
<path d="M87.2583 12.4446C87.23 12.1487 87.2638 11.8501 87.3577 11.568C87.4515 11.286 87.6033 11.0266 87.8032 10.8066C88.0032 10.5867 88.2469 10.4109 88.5187 10.2906C88.7906 10.1703 89.0846 10.1082 89.3818 10.1082C89.6791 10.1082 89.9731 10.1703 90.2449 10.2906C90.5168 10.4109 90.7605 10.5867 90.9604 10.8066C91.1604 11.0266 91.3121 11.286 91.406 11.568C91.4998 11.8501 91.5337 12.1487 91.5054 12.4446C91.5342 12.7408 91.5008 13.0398 91.4072 13.3223C91.3136 13.6048 91.1619 13.8647 90.9619 14.0851C90.7619 14.3055 90.518 14.4816 90.2459 14.6022C89.9738 14.7227 89.6795 14.785 89.3818 14.785C89.0842 14.785 88.7899 14.7227 88.5177 14.6022C88.2456 14.4816 88.0017 14.3055 87.8017 14.0851C87.6017 13.8647 87.4501 13.6048 87.3565 13.3223C87.2629 13.0398 87.2295 12.7408 87.2583 12.4446ZM90.5913 12.4446C90.5913 11.4685 90.1528 10.8977 89.3833 10.8977C88.6108 10.8977 88.1763 11.4685 88.1763 12.4446C88.1763 13.4285 88.6109 13.9949 89.3833 13.9949C90.1528 13.9949 90.5913 13.4246 90.5913 12.4446Z" fill="white"/>
<path d="M92.6977 10.1951H93.5532V10.9104H93.6196C93.7323 10.6535 93.9223 10.4381 94.1632 10.2943C94.404 10.1505 94.6838 10.0854 94.9634 10.1082C95.1825 10.0917 95.4025 10.1247 95.6071 10.2048C95.8117 10.2849 95.9956 10.41 96.1453 10.5709C96.295 10.7317 96.4066 10.9242 96.4718 11.134C96.537 11.3438 96.5541 11.5656 96.522 11.783V14.698H95.6333V12.0061C95.6333 11.2825 95.3189 10.9226 94.6616 10.9226C94.5129 10.9157 94.3644 10.941 94.2263 10.9968C94.0882 11.0527 93.9639 11.1377 93.8618 11.2461C93.7596 11.3545 93.6822 11.4836 93.6346 11.6248C93.5871 11.7659 93.5707 11.9156 93.5864 12.0637V14.698H92.6977V10.1951Z" fill="white"/>
<path d="M101.543 9.07399V10.2156H102.519V10.9641H101.543V13.2796C101.543 13.7512 101.738 13.9578 102.18 13.9578C102.293 13.9574 102.407 13.9506 102.519 13.9373V14.6775C102.359 14.706 102.198 14.7212 102.036 14.7229C101.047 14.7229 100.654 14.3752 100.654 13.5071V10.9641H99.939V10.2155H100.654V9.07399H101.543Z" fill="white"/>
<path d="M103.733 8.43726H104.614V10.9187H104.684C104.802 10.6594 104.997 10.4428 105.243 10.2984C105.489 10.1541 105.773 10.089 106.057 10.1121C106.275 10.1002 106.493 10.1366 106.695 10.2186C106.897 10.3007 107.079 10.4264 107.227 10.5867C107.375 10.747 107.486 10.9381 107.552 11.1462C107.618 11.3543 107.637 11.5744 107.608 11.7908V14.698H106.718V12.01C106.718 11.2908 106.383 10.9265 105.755 10.9265C105.603 10.914 105.449 10.935 105.305 10.988C105.161 11.0411 105.031 11.1249 104.923 11.2336C104.815 11.3424 104.732 11.4734 104.68 11.6175C104.628 11.7617 104.608 11.9155 104.622 12.0681V14.698H103.733L103.733 8.43726Z" fill="white"/>
<path d="M112.79 13.4822C112.669 13.8937 112.407 14.2497 112.051 14.4879C111.694 14.726 111.265 14.8312 110.838 14.7849C110.542 14.7927 110.247 14.7359 109.974 14.6184C109.702 14.5009 109.458 14.3254 109.26 14.1043C109.062 13.8832 108.915 13.6216 108.828 13.3378C108.742 13.054 108.718 12.7547 108.758 12.4607C108.719 12.1658 108.743 11.8659 108.83 11.5812C108.916 11.2965 109.063 11.0338 109.26 10.8107C109.456 10.5876 109.699 10.4095 109.971 10.2883C110.242 10.167 110.537 10.1056 110.834 10.1082C112.087 10.1082 112.843 10.9642 112.843 12.3782V12.6883H109.664V12.7381C109.65 12.9033 109.67 13.0696 109.725 13.2264C109.779 13.3831 109.865 13.5268 109.978 13.6483C110.091 13.7698 110.228 13.8663 110.38 13.9317C110.533 13.9971 110.697 14.0299 110.863 14.0281C111.075 14.0536 111.291 14.0153 111.481 13.9181C111.672 13.8209 111.83 13.6691 111.934 13.4822L112.79 13.4822ZM109.664 12.031H111.938C111.949 11.8799 111.929 11.7281 111.878 11.5854C111.827 11.4427 111.746 11.3122 111.642 11.2023C111.538 11.0925 111.411 11.0057 111.272 10.9475C111.132 10.8893 110.981 10.861 110.83 10.8645C110.676 10.8626 110.523 10.8914 110.381 10.9494C110.239 11.0073 110.109 11.0932 110.001 11.2019C109.892 11.3106 109.806 11.44 109.748 11.5824C109.69 11.7248 109.662 11.8773 109.664 12.031Z" fill="white"/>
</g>
<defs>
<clipPath id="clip0_11032_117603">
<rect width="135" height="40" fill="white" transform="translate(0 0.000244141)"/>
</clipPath>
</defs>
</svg>
