<svg width="387" height="296" viewBox="0 0 387 296" fill="none" xmlns="http://www.w3.org/2000/svg">
<mask id="mask0_1863_11645" style="mask-type:alpha" maskUnits="userSpaceOnUse" x="0" y="0" width="387" height="296">
<rect width="387" height="296" fill="#11E7DA"/>
</mask>
<g mask="url(#mask0_1863_11645)">
<rect opacity="0.1" width="387" height="296" fill="#11E7DA"/>
<path opacity="0.4" d="M371.491 320.632H314.467C314.467 312.184 316.579 304.053 320.803 296.238C325.027 288.424 330.096 281.982 336.01 276.914C350.583 265.298 357.869 255.794 357.869 248.402C357.869 245.022 356.707 242.277 354.384 240.165C352.061 238.053 348.893 236.997 344.88 236.997C334.531 236.997 325.872 244.706 318.903 260.123L265.363 229.71C272.755 212.181 283.632 198.875 297.994 189.794C312.567 180.712 329.04 176.171 347.415 176.171C368.746 176.171 386.381 181.874 400.32 193.278C414.259 204.472 421.229 219.573 421.229 238.581C421.229 255.688 415.421 270.261 403.805 282.299C401.271 284.834 397.575 288.213 392.717 292.437C388.071 296.661 384.48 300.04 381.946 302.574C379.411 304.898 376.983 307.749 374.659 311.128C372.547 314.507 371.491 317.675 371.491 320.632ZM368.64 397.298C361.671 404.267 353.117 407.752 342.979 407.752C333.053 407.752 324.394 404.267 317.002 397.298C310.032 390.117 306.547 381.458 306.547 371.32C306.547 361.182 310.032 352.629 317.002 345.659C324.183 338.478 332.842 334.888 342.979 334.888C353.117 334.888 361.671 338.478 368.64 345.659C375.821 352.629 379.411 361.182 379.411 371.32C379.411 381.458 375.821 390.117 368.64 397.298Z" fill="#11E7DA"/>
</g>
</svg>
