<svg width="137" height="41" viewBox="0 0 137 41" fill="none" xmlns="http://www.w3.org/2000/svg">
<path d="M17.5 14H3C1.34315 14 0 15.3431 0 17V38C0 39.6569 1.34315 41 3 41H4C5.65685 41 7 39.6569 7 38V23C7 22.4477 7.44772 22 8 22H17.5C19.1569 22 20.5 20.6569 20.5 19V17C20.5 15.3431 19.1569 14 17.5 14Z" fill="#FF782E"/>
<path d="M15.2784 7.5H3C1.34315 7.5 0 6.15685 0 4.5V3C0 1.34315 1.34315 0 3 0H18.3795C20.7189 0 22.9842 0.82016 24.7813 2.31779L26.1074 3.42287C27.364 4.46998 28.4812 5.67371 29.4319 7.00468L29.9878 7.78289C31.9469 10.5256 33 13.8256 33 17.1961C33 19.6911 32.4191 22.1618 31.3033 24.3934C30.4415 26.1171 29.2766 27.6717 27.8644 28.983L27.7887 29.0534C24.7106 31.9115 20.6656 33.5 16.4651 33.5H14C12.3431 33.5 11 32.1569 11 30.5V28C11 26.3431 12.3431 25 14 25H15.5685C18.6239 25 21.4512 23.383 23.0004 20.7494C24.5491 18.1165 24.5892 14.8606 23.1058 12.1904L23.0358 12.0645C21.4707 9.24725 18.5012 7.5 15.2784 7.5Z" fill="#EB2D2D"/>
<path d="M51.3223 27H48.1834L44.4965 20.6475H41.1085V27H38.2437V9.56183H45.2189C46.7801 9.56183 48.1004 10.1099 49.1799 11.206C50.276 12.2689 50.824 13.5892 50.824 15.167C50.824 16.2797 50.5002 17.3011 49.8525 18.2311C49.2214 19.1445 48.391 19.8088 47.3613 20.224L51.3223 27ZM45.2189 12.2523H41.1085V18.0816H45.2189C45.9829 18.0816 46.6306 17.7993 47.162 17.2346C47.6935 16.67 47.9592 15.9807 47.9592 15.167C47.9592 14.3532 47.6935 13.6639 47.162 13.0993C46.6306 12.5346 45.9829 12.2523 45.2189 12.2523Z" fill="black"/>
<path d="M68.4732 24.7081C66.7294 26.4519 64.5953 27.3238 62.0709 27.3238C59.5465 27.3238 57.4041 26.4519 55.6437 24.7081C53.8999 22.9477 53.028 20.8053 53.028 18.2809C53.028 15.7565 53.8999 13.6224 55.6437 11.8786C57.4041 10.1182 59.5465 9.23798 62.0709 9.23798C64.5953 9.23798 66.7294 10.1182 68.4732 11.8786C70.2336 13.6224 71.1138 15.7565 71.1138 18.2809C71.1138 20.8053 70.2336 22.9477 68.4732 24.7081ZM57.6615 22.765C58.8739 23.9442 60.3437 24.5337 62.0709 24.5337C63.8147 24.5337 65.2762 23.9442 66.4554 22.765C67.6511 21.5693 68.249 20.0746 68.249 18.2809C68.249 16.4873 67.6511 15.0009 66.4554 13.8217C65.2762 12.626 63.8147 12.0281 62.0709 12.0281C60.3271 12.0281 58.8573 12.626 57.6615 13.8217C56.4824 15.0009 55.8928 16.4873 55.8928 18.2809C55.8928 20.0579 56.4824 21.5526 57.6615 22.765Z" fill="black"/>
<path d="M88.0189 27H84.9299L83.7092 23.4875H76.2855L75.0649 27H71.9509L78.2785 9.56183H81.7163L88.0189 27ZM79.9974 12.9249L77.2322 20.797H82.7626L79.9974 12.9249Z" fill="black"/>
<path d="M96.2484 18.0567L103.547 27H100.135L93.259 18.7044V27H90.3941V9.56183H93.259V17.3841L99.8855 9.56183H103.298L96.2484 18.0567Z" fill="black"/>
<path d="M104.534 9.56183H117.239V12.3021H112.332V27H109.467V12.3021H104.534V9.56183Z" fill="black"/>
<path d="M119.858 27V9.56183H122.723V27H119.858Z" fill="black"/>
<path d="M136.921 9.56183V12.3021H129.572V17.1848H136.672V19.9251H129.572V27H126.707V9.56183H136.921Z" fill="black"/>
</svg>
