<?xml version="1.0" standalone="no"?>
<!DOCTYPE svg PUBLIC "-//W3C//DTD SVG 20010904//EN"
 "http://www.w3.org/TR/2001/REC-SVG-20010904/DTD/svg10.dtd">
<svg version="1.0" xmlns="http://www.w3.org/2000/svg"
 width="508.000000pt" height="339.000000pt" viewBox="0 0 508.000000 339.000000"
 preserveAspectRatio="xMidYMid meet">
<metadata>
Created by potrace 1.16, written by Peter Selinger 2001-2019
</metadata>
<g transform="translate(0.000000,339.000000) scale(0.100000,-0.100000)"
fill="#000000" stroke="none">
<path d="M2940 3379 c0 -13 78 -89 129 -127 39 -29 41 -52 4 -52 -40 0 -85 31
-108 74 -11 20 -30 39 -43 43 -29 7 -172 -6 -172 -17 0 -4 20 -37 45 -74 29
-44 55 -101 76 -166 37 -121 81 -213 110 -234 16 -11 36 -14 68 -10 71 9 98
23 111 57 l12 32 10 -35 c5 -19 8 -47 6 -62 -4 -27 -3 -28 41 -28 l46 0 -3 97
c-3 79 -1 96 9 86 20 -20 59 -16 217 23 237 57 447 94 597 107 24 1 31 7 33
27 6 48 24 80 46 81 20 1 20 2 1 6 -30 8 -35 21 -35 106 l0 77 -298 0 c-209 0
-301 -3 -309 -11 -18 -18 -83 -20 -83 -3 0 16 -55 20 -65 4 -6 -10 -81 -7 -92
4 -12 12 -353 7 -353 -5z"/>
<path d="M4401 3368 c-5 -13 -13 -41 -17 -63 -9 -39 -10 -40 -94 -68 l-85 -28
114 5 c63 3 168 13 233 23 l119 16 35 69 34 68 -165 0 c-162 0 -166 0 -174
-22z"/>
<path d="M2275 3291 c-4 -17 -4 -50 0 -72 6 -35 9 -39 28 -33 12 3 27 10 32
14 6 4 22 10 36 13 19 5 29 17 38 48 7 22 10 44 6 47 -3 3 -34 8 -69 10 l-64
4 -7 -31z"/>
<path d="M2537 3100 c-29 -23 -61 -108 -51 -136 13 -35 67 -84 101 -90 70 -13
133 39 133 110 0 102 -111 172 -183 116z m115 -24 c40 -30 49 -100 17 -140
-16 -20 -29 -26 -59 -26 -30 0 -43 6 -59 26 -24 30 -28 91 -8 116 29 36 79 48
109 24z"/>
<path d="M1078 2857 c-57 -18 -68 -26 -72 -47 -3 -14 -6 -104 -8 -200 l-3
-175 53 -3 c76 -4 97 13 93 79 -2 35 1 49 8 44 7 -3 11 2 11 14 0 11 7 24 15
29 13 7 15 30 13 143 -3 156 1 151 -110 116z"/>
<path d="M3640 2739 c-102 -3 -237 -8 -300 -9 -102 -2 -110 -3 -71 -12 32 -7
40 -12 30 -19 -11 -7 -11 -9 -1 -9 7 0 11 -4 8 -9 -4 -5 4 -7 16 -4 19 4 20 3
8 -6 -9 -6 -10 -11 -3 -11 6 0 17 -16 23 -35 6 -19 15 -33 20 -30 4 3 22 -1
39 -8 24 -10 28 -16 19 -25 -9 -9 -7 -12 10 -12 12 0 22 -4 22 -10 0 -6 -53
-10 -138 -10 -76 0 -240 -3 -364 -7 l-225 -6 -18 -219 c-10 -120 -20 -216 -23
-213 -5 4 14 303 24 389 l6 49 -343 -7 c-189 -3 -448 -7 -576 -9 l-232 -2 -5
-45 c-7 -50 -86 -845 -86 -858 0 -5 151 -12 336 -16 185 -4 346 -11 358 -16
19 -8 18 -9 -9 -11 -16 -1 -36 -1 -44 0 -7 2 -10 -2 -6 -8 3 -6 -1 -11 -10
-11 -8 0 -38 -11 -65 -25 -107 -54 -180 -66 -378 -60 -165 4 -181 3 -175 -12
5 -11 3 -14 -6 -8 -9 5 -12 2 -9 -11 3 -18 29 -20 458 -36 1270 -48 1974 -68
1980 -57 4 5 10 61 13 122 4 62 22 354 42 650 19 296 35 563 35 593 l0 54 -87
-2 c-49 -1 -171 -5 -273 -9z m245 -49 c14 -5 24 -14 20 -19 -3 -5 -1 -12 4
-15 14 -9 -10 -51 -36 -63 -14 -7 -25 -7 -29 -2 -3 5 -10 7 -15 4 -5 -4 -14 6
-19 21 -11 27 -4 44 29 72 18 14 14 14 46 2z m-240 -27 c11 -7 14 -13 8 -13
-21 0 -15 -20 6 -20 20 0 24 29 6 43 -6 5 -1 7 10 5 13 -3 19 -10 17 -23 -3
-18 -2 -18 13 3 9 12 22 22 28 21 8 0 7 -3 -2 -6 -10 -4 -11 -7 -1 -13 7 -4
10 -15 7 -23 -4 -11 -22 -15 -73 -15 -42 0 -61 3 -53 9 8 5 9 9 3 9 -6 0 -17
-7 -24 -15 -7 -8 -16 -12 -21 -9 -10 6 -12 47 -4 56 10 9 59 3 80 -9z m-361
-254 c25 -7 35 -13 27 -18 -7 -5 -11 -11 -9 -15 1 -3 -9 -19 -24 -35 -16 -16
-28 -34 -28 -40 0 -6 -7 -11 -16 -11 -12 0 -14 -3 -6 -13 9 -10 4 -12 -24 -9
-33 4 -36 7 -32 31 l4 27 -60 -16 c-101 -27 -150 -60 -201 -134 -110 -161 -67
-375 91 -452 115 -56 256 -27 343 72 40 45 81 121 81 149 0 8 7 15 15 15 41 0
-22 -136 -96 -205 -188 -176 -465 -93 -519 156 -42 193 105 409 295 436 38 5
45 9 45 29 0 59 9 61 114 33z m-1166 -26 c29 -15 55 -31 58 -35 3 -4 -4 -21
-15 -37 l-21 -29 25 -30 c136 -162 68 -445 -130 -543 -68 -33 -181 -34 -241
-2 -60 32 -112 91 -135 153 -32 86 -25 204 19 292 50 103 144 175 250 193 31
5 42 11 42 25 0 43 11 52 54 46 23 -4 65 -19 94 -33z m1472 -53 c-11 -7 -12
-12 -4 -17 9 -6 8 -12 -2 -21 -12 -11 -14 -8 -14 18 0 22 5 30 18 30 14 0 15
-2 2 -10z m27 -37 c-3 -10 -5 -2 -5 17 0 19 2 27 5 18 2 -10 2 -26 0 -35z
m100 0 c-3 -10 -5 -4 -5 12 0 17 2 24 5 18 2 -7 2 -21 0 -30z m-1297 18 c0 -5
-7 -11 -15 -15 -20 -7 -19 -26 1 -26 8 0 12 5 8 11 -4 8 1 9 16 4 15 -5 20 -4
16 4 -4 6 -2 11 3 11 6 0 11 -9 11 -20 0 -15 -7 -20 -25 -20 -14 0 -28 0 -32
-1 -18 -2 -27 30 -14 45 15 17 31 21 31 7z m1240 -2 c0 -5 -4 -7 -10 -4 -5 3
-10 -2 -10 -11 0 -10 -3 -15 -6 -11 -9 9 3 37 16 37 5 0 10 -5 10 -11z m33 4
c-7 -2 -13 -12 -13 -20 0 -9 -3 -14 -6 -10 -10 10 4 37 18 36 10 0 10 -2 1 -6z
m103 -13 c0 -11 -4 -20 -8 -20 -10 0 -11 24 -1 33 9 9 9 10 9 -13z m31 -12
c-3 -7 -5 -2 -5 12 0 14 2 19 5 13 2 -7 2 -19 0 -25z m26 12 c-3 -11 -7 -20
-9 -20 -2 0 -4 9 -4 20 0 11 4 20 9 20 5 0 7 -9 4 -20z m-86 -12 c-3 -8 -6 -5
-6 6 -1 11 2 17 5 13 3 -3 4 -12 1 -19z m-1277 2 c-11 -7 -11 -10 -2 -10 7 0
10 -4 7 -10 -10 -16 -21 -11 -22 10 -1 13 4 20 15 20 15 0 15 -2 2 -10z m10
-85 c0 -12 -13 -15 -59 -15 -56 0 -79 9 -64 24 3 3 33 6 65 6 45 0 58 -3 58
-15z m1298 3 c-3 -8 -28 -14 -66 -16 -51 -2 -62 0 -62 13 0 12 13 15 66 15 48
0 65 -3 62 -12z m-1305 -43 c1 -6 -25 -11 -60 -13 -58 -3 -74 4 -56 22 11 10
113 3 116 -9z m1300 0 c-2 -5 -32 -11 -68 -13 -60 -3 -76 3 -58 22 11 11 128
2 126 -9z m-630 -22 c-7 -2 -19 -2 -25 0 -7 3 -2 5 12 5 14 0 19 -2 13 -5z
m-673 -24 c0 -5 -27 -9 -60 -9 -53 0 -70 7 -56 21 8 8 116 -3 116 -12z m725 1
c10 -11 16 -20 13 -20 -3 0 -13 9 -23 20 -10 11 -16 20 -13 20 3 0 13 -9 23
-20z m-115 6 c0 -2 -8 -10 -17 -17 -16 -13 -17 -12 -4 4 13 16 21 21 21 13z
m690 -6 c0 -6 -28 -10 -65 -10 -37 0 -65 4 -65 10 0 6 28 10 65 10 37 0 65 -4
65 -10z m-1303 -42 c-5 -18 -119 -18 -125 0 -3 9 14 12 63 12 49 0 66 -3 62
-12z m1303 -3 c0 -12 -14 -15 -65 -15 -51 0 -65 3 -65 15 0 12 14 15 65 15 51
0 65 -3 65 -15z m-1103 -92 c-2 -16 -4 -3 -4 27 0 30 2 43 4 28 2 -16 2 -40 0
-55z m-202 52 c0 -5 -28 -11 -62 -13 -52 -2 -63 0 -63 13 0 13 11 15 63 13 34
-2 62 -7 62 -13z m1305 -5 c0 -6 -30 -10 -70 -10 -40 0 -70 4 -70 10 0 6 30
10 70 10 40 0 70 -4 70 -10z m-1310 -35 c0 -12 -13 -15 -60 -15 -47 0 -60 3
-60 15 0 12 13 15 60 15 47 0 60 -3 60 -15z m1303 -10 c-4 -15 -125 -13 -131
3 -3 10 12 12 65 10 39 -2 67 -7 66 -13z m-563 1 c0 -2 -8 -10 -17 -17 -16
-13 -17 -12 -4 4 13 16 21 21 21 13z m-742 -33 c3 -10 -14 -13 -62 -13 -61 0
-77 6 -59 24 12 12 116 2 121 -11z m1302 -8 c0 -12 -14 -15 -65 -15 -51 0 -65
3 -65 15 0 12 14 15 65 15 51 0 65 -3 65 -15z m-1316 -21 c31 -12 4 -24 -55
-24 -55 0 -69 6 -52 23 8 9 86 9 107 1z m213 -61 c-2 -16 -4 -5 -4 22 0 28 2
40 4 28 2 -13 2 -35 0 -50z m496 37 c3 -11 1 -20 -4 -20 -5 0 -9 3 -10 8 0 4
-2 15 -4 25 -4 23 11 12 18 -13z m29 -3 c-4 -14 -7 -16 -13 -5 -12 19 -11 25
5 25 8 0 11 -8 8 -20z m-128 -2 c-4 -8 -8 -15 -10 -15 -2 0 -4 7 -4 15 0 8 4
15 10 15 5 0 7 -7 4 -15z m-631 -14 c15 -1 27 -5 27 -11 0 -6 -27 -10 -60 -10
-56 0 -70 6 -53 23 3 4 18 5 32 3 14 -2 38 -5 54 -5z m224 -138 c-2 -16 -4 -5
-4 22 0 28 2 40 4 28 2 -13 2 -35 0 -50z m-331 -4 c9 12 21 21 27 21 9 0 9 -2
0 -8 -9 -6 -7 -11 7 -20 17 -11 20 -10 20 7 0 15 7 19 30 19 17 -1 30 -6 30
-12 0 -6 3 -21 6 -33 4 -14 2 -23 -5 -23 -6 0 -11 14 -11 31 0 18 -4 28 -10
24 -6 -4 -8 -15 -5 -26 8 -23 -19 -37 -39 -20 -11 9 -15 9 -19 -1 -3 -11 -8
-11 -26 0 -17 10 -21 10 -22 0 0 -10 -2 -10 -6 0 -2 6 -11 12 -19 12 -19 0
-18 9 4 33 17 19 17 19 20 -3 l4 -22 14 21z m135 -12 c-8 -8 -11 -7 -11 4 0 9
3 19 7 23 4 4 9 2 11 -4 3 -7 -1 -17 -7 -23z m37 6 c-17 -41 -28 -50 -28 -25
0 12 5 22 10 22 6 0 10 7 10 15 0 8 4 15 10 15 6 0 5 -11 -2 -27z m1042 -22
c0 -17 -4 -32 -8 -35 -5 -3 -8 11 -8 29 1 42 16 47 16 6z m85 -8 c0 -23 -5
-28 -25 -30 -16 -1 -18 0 -7 4 11 3 16 11 13 19 -3 7 -1 16 5 19 5 4 6 11 3
17 -4 6 -3 8 2 5 6 -3 10 -18 9 -34z m52 31 c-3 -3 -12 -4 -19 -1 -8 3 -5 6 6
6 11 1 17 -2 13 -5z m46 -26 c-8 -46 -13 -48 -13 -5 0 21 4 37 10 37 5 0 7
-14 3 -32z m50 1 c9 7 12 3 12 -14 0 -16 -3 -20 -12 -14 -7 7 -13 5 -16 -3 -3
-7 -5 5 -5 27 0 23 3 30 5 17 3 -16 8 -20 16 -13z m-109 5 c19 -7 21 -30 4
-40 -7 -5 -8 -3 -3 6 5 8 1 18 -10 27 -20 14 -16 17 9 7z m189 -24 c3 -11 1
-20 -4 -20 -5 0 -9 4 -9 9 0 5 -3 17 -7 27 -4 11 -3 15 4 11 6 -4 13 -16 16
-27z m-23 -4 c0 -3 -4 -8 -10 -11 -5 -3 -10 -1 -10 4 0 6 5 11 10 11 6 0 10
-2 10 -4z m-1183 -58 c-2 -13 -4 -5 -4 17 -1 22 1 32 4 23 2 -10 2 -28 0 -40z
m-363 -121 c0 -9 -1 -33 -2 -52 -2 -40 -16 -44 -49 -13 -30 28 -29 37 5 65 30
25 47 25 46 0z m384 1 c7 -7 12 -26 12 -43 0 -38 -16 -55 -50 -55 -33 0 -50
17 -50 51 0 49 56 79 88 47z m377 -28 c16 -16 27 -31 24 -33 -51 -39 -63 -47
-70 -47 -10 0 -12 93 -2 103 11 12 18 8 48 -23z"/>
<path d="M3850 2673 c-31 -12 -37 -35 -15 -56 19 -19 52 -11 58 14 4 15 -17
52 -26 48 -1 0 -9 -3 -17 -6z m28 -30 c-5 -26 -38 -29 -38 -4 0 15 6 21 21 21
14 0 19 -5 17 -17z"/>
<path d="M3850 2640 c0 -5 5 -10 10 -10 6 0 10 5 10 10 0 6 -4 10 -10 10 -5 0
-10 -4 -10 -10z"/>
<path d="M3571 2644 c0 -11 3 -14 6 -6 3 7 2 16 -1 19 -3 4 -6 -2 -5 -13z"/>
<path d="M3710 2640 c0 -5 5 -10 10 -10 6 0 10 5 10 10 0 6 -4 10 -10 10 -5 0
-10 -4 -10 -10z"/>
<path d="M3283 2375 c0 -8 4 -12 9 -9 5 3 6 10 3 15 -9 13 -12 11 -12 -6z"/>
<path d="M1870 2293 c-65 -23 -151 -113 -178 -186 -79 -211 63 -424 259 -387
102 20 178 83 227 189 30 64 36 169 14 233 -13 36 -82 130 -82 111 -1 -29 -18
-32 -65 -8 -26 14 -57 25 -68 25 -14 0 -18 5 -14 20 4 16 0 20 -21 19 -15 0
-47 -8 -72 -16z m121 -164 l24 -21 -25 16 c-13 9 -34 16 -46 16 -30 0 -84 -47
-85 -73 -1 -18 -2 -19 -6 -4 -6 23 22 65 50 77 36 14 63 11 88 -11z m-108
-146 c11 -13 18 -23 14 -23 -15 0 -47 45 -46 64 1 20 1 20 6 1 3 -11 14 -30
26 -42z m129 25 c-8 -8 -9 -4 -5 13 4 13 8 18 11 10 2 -7 -1 -18 -6 -23z m-46
-43 c-11 -8 -29 -15 -40 -14 -15 0 -10 4 14 13 46 18 48 18 26 1z m-55 -34 c0
-3 2 -14 4 -23 3 -14 -4 -18 -30 -18 -26 0 -33 4 -30 18 2 9 4 20 4 23 1 4 12
7 26 7 14 0 25 -3 26 -7z m74 -16 c0 -14 -7 -20 -27 -22 -21 -1 -28 3 -28 16
0 24 10 32 35 29 12 -2 20 -10 20 -23z"/>
<path d="M1871 1914 c0 -11 3 -14 6 -6 3 7 2 16 -1 19 -3 4 -6 -2 -5 -13z"/>
<path d="M1954 1915 c8 -8 16 -15 19 -15 2 0 4 7 4 15 0 8 -9 15 -19 15 -17 0
-18 -2 -4 -15z"/>
<path d="M2400 1739 c0 -5 5 -7 10 -4 6 3 10 8 10 11 0 2 -4 4 -10 4 -5 0 -10
-5 -10 -11z"/>
<path d="M2295 1730 c-3 -5 -1 -10 4 -10 6 0 11 5 11 10 0 6 -2 10 -4 10 -3 0
-8 -4 -11 -10z"/>
<path d="M2345 1719 c-10 -15 3 -25 16 -12 7 7 7 13 1 17 -6 3 -14 1 -17 -5z"/>
<path d="M2390 1710 c0 -5 5 -10 10 -10 6 0 10 5 10 10 0 6 -4 10 -10 10 -5 0
-10 -4 -10 -10z"/>
<path d="M2252 1492 l-23 -18 21 -19 c25 -22 32 -16 28 24 -3 30 -3 30 -26 13z"/>
<path d="M2621 1494 c-26 -18 -25 -51 2 -68 23 -15 51 3 55 37 4 35 -26 52
-57 31z m25 -24 c0 -16 -6 -30 -13 -30 -7 0 -10 7 -8 15 3 8 7 22 10 30 7 24
13 17 11 -15z"/>
<path d="M3015 1478 c-4 -9 -5 -28 -3 -41 l3 -25 24 19 24 20 -21 21 c-18 19
-22 20 -27 6z"/>
<path d="M4036 2601 c-4 -36 -15 -196 -26 -356 -11 -159 -24 -317 -30 -350
-13 -87 -18 -143 -35 -398 -8 -126 -17 -232 -19 -236 -3 -4 -103 -8 -223 -8
-251 -1 -538 -17 -668 -38 -49 -7 -135 -19 -189 -25 -55 -6 -105 -15 -113 -21
-7 -6 -31 -9 -55 -6 -182 23 -176 21 -184 61 -8 44 -26 38 -60 -20 -29 -48
-32 -50 -48 -30 -13 17 -128 23 -604 32 l-314 6 7 -24 c12 -37 25 -48 66 -54
22 -4 39 -10 39 -15 0 -5 -3 -8 -7 -7 -5 1 -23 -1 -41 -5 -42 -9 -56 -43 -46
-117 8 -62 12 -100 18 -180 10 -137 55 -456 72 -509 8 -25 14 -50 14 -57 0 -7
5 -25 12 -41 6 -15 12 -34 14 -42 1 -7 7 -18 13 -24 6 -6 11 -18 11 -27 0 -9
12 -23 27 -31 14 -8 42 -29 61 -48 27 -26 36 -30 43 -20 7 12 9 11 10 -1 0
-10 3 -8 9 5 7 15 9 16 9 4 1 -15 26 -17 231 -18 193 -2 230 0 230 12 0 8 13
17 30 21 30 5 43 36 16 36 -7 0 -19 20 -26 45 -8 30 -25 56 -49 77 -47 41 -71
90 -78 159 -7 67 8 104 39 96 15 -4 30 4 53 29 36 38 49 40 155 22 67 -11 71
-11 91 9 12 12 18 26 15 32 -4 6 -39 29 -79 52 -40 23 -85 53 -102 67 -58 48
-78 51 -173 27 -48 -12 -131 -25 -184 -28 -92 -6 -98 -5 -113 16 -21 30 -19
62 8 101 46 68 117 108 218 121 45 6 47 8 53 43 12 70 37 110 86 142 56 36 70
37 98 7 23 -24 29 -47 12 -47 -5 0 -21 -20 -35 -45 -19 -32 -24 -49 -17 -61 8
-14 14 -9 38 32 38 65 103 148 118 150 7 1 25 14 39 28 33 33 54 33 69 0 9
-20 9 -30 -1 -45 -12 -20 -10 -20 36 -14 26 4 63 14 81 22 27 13 39 14 78 3
27 -8 41 -16 33 -20 -18 -12 18 -20 107 -24 348 -17 494 -38 532 -75 14 -15
13 -16 -14 -19 -16 -1 -47 -7 -70 -13 -66 -17 -450 -18 -502 -1 -52 17 -84 10
-102 -23 -7 -13 -22 -27 -33 -31 -25 -8 -46 -61 -40 -102 4 -25 11 -34 32 -38
58 -13 91 -26 99 -40 5 -8 36 -19 73 -25 35 -5 80 -14 99 -19 19 -5 84 -16
144 -25 106 -16 146 -28 146 -43 0 -17 -199 1 -348 33 -81 17 -130 19 -150 7
-9 -6 -6 -12 13 -20 14 -6 25 -16 25 -20 0 -11 69 -37 119 -46 76 -14 84 -67
19 -133 l-41 -42 24 -71 c13 -39 34 -81 46 -92 13 -12 23 -17 23 -12 0 7 23 8
63 3 40 -5 95 -3 157 6 61 9 98 11 104 5 6 -6 19 -10 31 -10 12 0 26 -5 33
-12 7 -7 12 -9 12 -6 0 4 13 3 30 -2 21 -6 39 -4 59 6 39 20 127 30 143 16 12
-9 98 -26 143 -27 11 0 31 3 45 8 13 4 43 10 65 13 22 3 51 7 65 8 14 2 60 22
102 45 62 34 85 41 129 41 61 0 122 -15 141 -34 8 -7 25 -19 38 -26 33 -17 61
-41 142 -123 37 -38 68 -73 68 -79 0 -5 10 -18 23 -29 20 -17 42 -18 270 -19
l247 0 0 465 0 465 -27 1 c-16 0 -75 1 -133 2 -86 2 -113 6 -151 25 -58 28
-70 63 -33 97 24 23 34 85 14 85 -6 0 -15 11 -19 23 -5 13 -24 30 -42 37 -30
13 -31 14 -10 22 32 12 204 1 286 -18 39 -9 80 -18 93 -21 l22 -5 0 321 0 321
-362 0 c-365 1 -538 10 -592 32 l-29 12 7 189 c5 130 4 192 -3 196 -7 5 -7 59
0 180 l11 173 -35 32 -35 32 -6 -65z m178 -813 c3 -18 8 -60 11 -93 3 -35 18
-87 35 -124 17 -35 30 -65 30 -68 0 -2 -28 -3 -62 -1 l-63 3 4 150 c2 83 5
153 8 158 11 19 33 4 37 -25z m288 -540 c-7 -7 -12 -8 -12 -2 0 14 12 26 19
19 2 -3 -1 -11 -7 -17z m-312 -9 c27 -7 21 -8 -28 -4 -35 3 -71 9 -80 14 -19
11 50 4 108 -10z m443 -16 c-7 -2 -13 -20 -13 -39 0 -35 -16 -47 -22 -16 -6
25 13 62 31 61 10 0 12 -2 4 -6z m-2718 -109 c94 -3 186 -10 205 -15 25 -6 12
-7 -45 -4 -44 2 -167 7 -272 11 -119 4 -193 11 -193 17 0 6 25 8 68 4 37 -4
144 -9 237 -13z m1768 -120 c21 -14 37 -27 35 -29 -2 -2 -43 -9 -91 -15 -74
-9 -94 -8 -137 6 l-51 17 22 23 c20 21 31 24 103 24 71 0 86 -3 119 -26z
m1230 -217 c23 -14 53 -37 66 -51 14 -14 29 -26 34 -26 5 0 18 -10 29 -22 19
-22 19 -22 -4 -40 -13 -10 -30 -20 -39 -23 -10 -3 -29 -44 -49 -105 -43 -131
-64 -153 -123 -131 -33 13 -51 55 -87 209 -34 141 -34 192 -2 212 28 18 127 5
175 -23z m-553 -36 c0 -13 -59 -57 -94 -71 -21 -8 -32 -7 -42 1 -8 6 -14 8
-14 4 0 -4 -7 -2 -15 5 -24 20 -13 33 46 51 61 19 119 24 119 10z m-2312 -170
c10 -6 10 -10 -3 -21 -18 -15 -42 0 -31 19 8 13 16 14 34 2z m-129 -45 c18
-22 10 -70 -12 -74 -22 -4 -46 24 -47 55 0 32 38 44 59 19z"/>
<path d="M4137 2290 c-4 -63 -9 -153 -12 -200 l-5 -85 16 45 c8 25 18 66 21
93 3 26 10 47 15 47 9 0 48 59 48 74 0 4 -9 6 -19 3 -33 -8 -46 10 -51 75 -5
59 -6 55 -13 -52z"/>
<path d="M0 1800 l0 -100 54 0 c46 0 146 31 146 45 0 2 -9 19 -19 37 -11 18
-25 52 -32 76 l-12 42 -69 0 -68 0 0 -100z"/>
<path d="M1091 1774 c-109 -27 -136 -44 -74 -44 23 0 44 -4 47 -9 3 -4 29 -11
58 -15 29 -4 62 -9 74 -12 17 -5 22 0 28 26 8 43 -2 80 -23 79 -9 0 -58 -11
-110 -25z"/>
<path d="M1270 1563 c0 -4 12 -19 26 -34 l26 -27 -21 -14 c-27 -17 -27 -44 2
-62 20 -13 127 -40 132 -34 2 2 6 39 9 83 3 44 3 74 0 68 -3 -7 -10 -13 -15
-13 -6 0 -8 4 -5 9 3 4 -20 13 -51 20 -64 13 -103 14 -103 4z"/>
<path d="M2434 993 c-4 -16 -10 -32 -14 -38 -4 -5 -11 -25 -15 -42 -6 -29 -4
-33 15 -33 12 0 35 9 51 21 24 17 28 25 22 47 -7 29 -34 71 -45 72 -4 0 -11
-12 -14 -27z"/>
<path d="M2248 893 c-24 -28 -29 -61 -9 -58 10 1 18 15 22 38 3 21 5 37 4 37
-1 0 -9 -8 -17 -17z"/>
<path d="M2523 770 c-28 -11 -22 -30 16 -53 63 -37 114 -9 70 38 -25 26 -49
30 -86 15z"/>
<path d="M0 270 l-1 -270 457 0 c413 0 456 2 450 16 -4 11 1 18 15 21 15 4 17
8 8 14 -7 4 -21 1 -33 -6 -17 -12 -21 -12 -32 3 -12 16 -13 16 -19 0 -12 -29
-31 -21 -29 12 1 17 -2 33 -7 36 -5 3 -9 -3 -9 -13 -1 -19 -22 -53 -34 -53 -3
0 -6 7 -6 15 0 8 5 15 10 15 13 0 13 37 0 45 -5 3 -12 -5 -16 -19 -6 -27 -29
-25 -50 3 -10 13 -12 12 -18 -7 -4 -12 -4 -26 -1 -32 3 -5 1 -10 -4 -10 -6 0
-11 7 -11 15 0 8 -6 15 -13 15 -8 0 -22 9 -32 20 -10 11 -26 20 -36 20 -10 0
-25 10 -33 22 l-16 22 0 -21 c0 -12 3 -23 7 -26 5 -2 2 -2 -5 0 -8 1 -21 3
-30 3 -9 0 -28 10 -42 21 -14 11 -20 18 -13 15 13 -7 39 31 29 42 -3 3 -6 1
-6 -4 0 -5 -14 -11 -31 -12 -19 -2 -28 2 -24 8 3 5 1 10 -6 10 -6 0 -9 8 -6
20 5 21 -7 28 -18 10 -3 -5 -18 -10 -31 -10 -32 0 -27 22 7 31 l24 6 -27 11
c-16 6 -28 16 -28 22 0 6 -8 5 -20 -2 -16 -10 -24 -10 -40 0 -11 6 -26 12 -33
12 -7 0 -19 15 -26 34 -11 25 -18 32 -33 28 -16 -4 -19 0 -16 24 2 16 -1 29
-7 30 -21 2 -61 23 -74 38 -11 14 -11 16 3 16 10 0 14 5 11 11 -4 6 -13 8 -21
5 -20 -7 -44 3 -39 17 3 7 -6 20 -19 29 l-24 18 -2 -270z m290 -20 c0 -5 -4
-10 -10 -10 -5 0 -10 5 -10 10 0 6 5 10 10 10 6 0 10 -4 10 -10z m137 -96 c-3
-3 -12 -4 -19 -1 -8 3 -5 6 6 6 11 1 17 -2 13 -5z"/>
<path d="M60 490 c0 -5 5 -10 10 -10 6 0 10 5 10 10 0 6 -4 10 -10 10 -5 0
-10 -4 -10 -10z"/>
<path d="M2615 470 c-9 -15 32 -50 60 -50 34 0 31 11 -10 38 -39 25 -42 26
-50 12z"/>
<path d="M138 433 c7 -3 16 -2 19 1 4 3 -2 6 -13 5 -11 0 -14 -3 -6 -6z"/>
<path d="M234 335 c8 -8 17 -15 20 -15 3 0 6 7 6 15 0 9 -9 15 -21 15 -18 0
-19 -2 -5 -15z"/>
<path d="M301 294 c0 -11 3 -14 6 -6 3 7 2 16 -1 19 -3 4 -6 -2 -5 -13z"/>
<path d="M2305 100 c3 -5 8 -10 11 -10 2 0 4 5 4 10 0 6 -5 10 -11 10 -5 0 -7
-4 -4 -10z"/>
<path d="M931 14 c0 -11 3 -14 6 -6 3 7 2 16 -1 19 -3 4 -6 -2 -5 -13z"/>
</g>
</svg>
